<?xml version="1.0" encoding="UTF-8" standalone="no"?>
<!-- Generator: Adobe Illustrator 16.0.4, SVG Export Plug-In . SVG Version: 6.00 Build 0)  -->

<svg
   xmlns:dc="http://purl.org/dc/elements/1.1/"
   xmlns:cc="http://creativecommons.org/ns#"
   xmlns:rdf="http://www.w3.org/1999/02/22-rdf-syntax-ns#"
   xmlns:svg="http://www.w3.org/2000/svg"
   xmlns="http://www.w3.org/2000/svg"
   xmlns:xlink="http://www.w3.org/1999/xlink"
   xmlns:sodipodi="http://sodipodi.sourceforge.net/DTD/sodipodi-0.dtd"
   xmlns:inkscape="http://www.inkscape.org/namespaces/inkscape"
   version="1.1"
   id="Layer_1"
   x="0px"
   y="0px"
   width="284.768px"
   height="266.287px"
   viewBox="0 0 284.768 266.287"
   enable-background="new 0 0 284.768 266.287"
   xml:space="preserve"
   sodipodi:docname="severe-flood-ended.svg"
   inkscape:version="0.92.4 (5da689c313, 2019-01-14)"><metadata
   id="metadata199"><rdf:RDF><cc:Work
       rdf:about=""><dc:format>image/svg+xml</dc:format><dc:type
         rdf:resource="http://purl.org/dc/dcmitype/StillImage" /><dc:title></dc:title></cc:Work></rdf:RDF></metadata><defs
   id="defs197">
	
	
	
	
	

		
	
		<defs
   id="defs167">
			<path
   id="SVGID_1_"
   d="m 104.312,97.115 -32.04,98.696 c 0.193,0.864 0.593,1.696 1.226,2.402 1.03,1.161 2.917,3.173 5.439,5.069 2.538,1.84 5.69,3.842 10.071,3.928 5.117,-0.144 8.599,-2.521 11.886,-4.175 3.229,-1.786 6.072,-2.967 7.716,-2.896 0.839,0.017 1.34,0.16 2.131,0.539 1.168,0.544 2.795,1.913 5.253,3.476 2.433,1.55 5.977,3.092 10.285,3.057 2.958,0.014 5.585,-0.635 7.697,-1.596 3.181,-1.464 5.125,-3.268 6.607,-4.187 1.526,-0.942 2.287,-1.337 4.335,-1.384 1.443,0.01 2.254,0.245 3.116,0.627 1.275,0.548 2.721,1.791 5.133,3.4 2.327,1.562 5.86,3.143 10.169,3.143 0.071,0 0.139,0 0.212,-0.004 2.951,0.014 5.584,-0.635 7.699,-1.592 3.18,-1.465 5.13,-3.269 6.609,-4.19 1.528,-0.946 2.284,-1.337 4.329,-1.384 1.272,-0.026 2.944,0.55 4.229,1.269 0.642,0.346 1.18,0.704 1.529,0.961 0.173,0.122 0.301,0.221 0.375,0.277 0.024,0.027 0.047,0.04 0.058,0.049 0.004,0.004 0.004,0.004 0.004,0.004 v 0.003 l 0.002,-0.003 0.337,0.272 c 1.229,0.884 2.776,1.986 4.812,2.871 2.027,0.886 4.519,1.477 7.289,1.463 4.674,0.02 8.409,-2.027 10.858,-4.087 2.449,-2.035 4.065,-4.277 4.653,-4.92 0.302,-0.335 0.529,-0.705 0.728,-1.088 l -32.312,-100 z"
   inkscape:connector-curvature="0" />
		</defs>
		<clipPath
   id="SVGID_2_">
			<use
   xlink:href="#SVGID_1_"
   overflow="visible"
   id="use169"
   style="overflow:visible"
   x="0"
   y="0"
   width="100%"
   height="100%" />
		</clipPath>
		
	</defs><sodipodi:namedview
   pagecolor="#ffffff"
   bordercolor="#666666"
   borderopacity="1"
   objecttolerance="10"
   gridtolerance="10"
   guidetolerance="10"
   inkscape:pageopacity="0"
   inkscape:pageshadow="2"
   inkscape:window-width="1920"
   inkscape:window-height="1027"
   id="namedview195"
   showgrid="false"
   inkscape:zoom="2.5067271"
   inkscape:cx="249.98036"
   inkscape:cy="113.10063"
   inkscape:window-x="-8"
   inkscape:window-y="-8"
   inkscape:window-maximized="1"
   inkscape:current-layer="Layer_1" />
<g
   id="g160">
		<path
   style="fill:#ffffff"
   inkscape:connector-curvature="0"
   id="path158"
   d="M 276.024,236.001 156.4,15.271 C 152.933,8.713 147.922,5.23 142.14,5.23 c -5.05,0 -10.43,3.482 -13.916,10.041 L 8.612,236.001 c -7.363,13.495 -1.156,24.316 14.283,24.316 h 238.877 c 15.411,10e-4 21.586,-10.82 14.252,-24.316" />
	</g><g
   id="g164">
		<path
   style="fill:none;stroke:#ffffff;stroke-width:5.7670002"
   inkscape:connector-curvature="0"
   id="path162"
   d="M 276.024,236.001 156.4,15.271 C 152.933,8.713 147.922,5.23 142.14,5.23 c -5.05,0 -10.43,3.482 -13.916,10.041 L 8.612,236.001 c -7.363,13.495 -1.156,24.316 14.283,24.316 h 238.877 c 15.411,10e-4 21.586,-10.82 14.252,-24.316 z" />
	</g><path
   clip-path="url(#SVGID_2_)"
   d="m 193.625,169.106 -0.004,-0.003 -48.245,-55.773 c -0.974,-1.125 -2.395,-1.775 -3.886,-1.779 -1.487,-0.003 -2.908,0.644 -3.886,1.768 l -16.668,19.169 v -9.423 h -12.04 v 23.268 l -20.019,23.024 c -1.865,2.146 -1.638,5.396 0.507,7.26 0.974,0.845 2.175,1.263 3.37,1.263 1.439,0 2.871,-0.599 3.889,-1.769 l 4.417,-5.082 v 36.826 c 0,1.316 0.53,2.602 1.46,3.53 0.929,0.93 2.218,1.46 3.527,1.46 h 70.395 c 1.313,0 2.598,-0.53 3.528,-1.46 0.929,-0.929 1.464,-2.214 1.464,-3.53 v -37.113 l 4.405,5.093 c 1.861,2.149 5.106,2.388 7.259,0.529 2.149,-1.863 2.385,-5.109 0.527,-7.258 m -19.922,19.209 H 158.31 v -16.934 h 15.393 z"
   id="path172"
   inkscape:connector-curvature="0"
   style="fill:#181c1b;stroke:#181c1b;stroke-opacity:1" /><path
   d="M 276.024,236.001 156.402,15.271 C 152.935,8.713 147.922,5.23 142.14,5.23 c -5.05,0 -10.428,3.482 -13.916,10.041 L 8.614,236.001 C 1.25,249.497 7.456,260.32 22.892,260.32 h 238.88 c 15.411,0 21.589,-10.823 14.252,-24.319 m -20.057,8.494 H 28.294 c -4.632,0 -5.402,-1.938 -3.864,-4.626 L 139.426,27.62 c 0.4,-0.765 1.555,-1.926 2.714,-1.926 1.544,0 2.688,1.161 3.066,1.926 l 114.608,212.249 c 1.561,2.687 0.787,4.626 -3.847,4.626"
   id="path188"
   inkscape:connector-curvature="0"
   style="fill:#818181;fill-opacity:1" />
<rect
   style="fill:#181c1b;fill-opacity:1;stroke:#181c1b;stroke-width:0.99333644;stroke-miterlimit:10;stroke-dasharray:none;stroke-opacity:1"
   id="rect224"
   width="80.480576"
   height="31.916668"
   x="101.0323"
   y="197.27142" /></svg>