<?xml version="1.0" encoding="utf-8"?>
<!-- Generator: Adobe Illustrator 16.0.4, SVG Export Plug-In . SVG Version: 6.00 Build 0)  -->
<!DOCTYPE svg PUBLIC "-//W3C//DTD SVG 1.1//EN" "http://www.w3.org/Graphics/SVG/1.1/DTD/svg11.dtd">
<svg version="1.1" id="Layer_1" xmlns="http://www.w3.org/2000/svg" xmlns:xlink="http://www.w3.org/1999/xlink" x="0px" y="0px"
	 width="284.768px" height="266.287px" viewBox="0 0 284.768 266.287" enable-background="new 0 0 284.768 266.287"
	 xml:space="preserve">
<g>
	<g>
		<path fill="#FFFFFF" d="M276.024,236.001L156.4,15.271c-3.467-6.558-8.478-10.041-14.26-10.041c-5.05,0-10.43,3.482-13.916,10.041
			L8.612,236.001c-7.363,13.495-1.156,24.316,14.283,24.316h238.877C277.183,260.318,283.358,249.497,276.024,236.001"/>
	</g>
	<g>
		<path fill="none" stroke="#FFFFFF" stroke-width="5.767" d="M276.024,236.001L156.4,15.271
			c-3.467-6.558-8.478-10.041-14.26-10.041c-5.05,0-10.43,3.482-13.916,10.041L8.612,236.001
			c-7.363,13.495-1.156,24.316,14.283,24.316h238.877C277.183,260.318,283.358,249.497,276.024,236.001z"/>
	</g>
	<g>
		<defs>
			<path id="SVGID_1_" d="M104.312,97.115l-32.04,98.696c0.193,0.864,0.593,1.696,1.226,2.402c1.03,1.161,2.917,3.173,5.439,5.069
				c2.538,1.84,5.69,3.842,10.071,3.928c5.117-0.144,8.599-2.521,11.886-4.175c3.229-1.786,6.072-2.967,7.716-2.896
				c0.839,0.017,1.34,0.16,2.131,0.539c1.168,0.544,2.795,1.913,5.253,3.476c2.433,1.55,5.977,3.092,10.285,3.057
				c2.958,0.014,5.585-0.635,7.697-1.596c3.181-1.464,5.125-3.268,6.607-4.187c1.526-0.942,2.287-1.337,4.335-1.384
				c1.443,0.01,2.254,0.245,3.116,0.627c1.275,0.548,2.721,1.791,5.133,3.4c2.327,1.562,5.86,3.143,10.169,3.143
				c0.071,0,0.139,0,0.212-0.004c2.951,0.014,5.584-0.635,7.699-1.592c3.18-1.465,5.13-3.269,6.609-4.19
				c1.528-0.946,2.284-1.337,4.329-1.384c1.272-0.026,2.944,0.55,4.229,1.269c0.642,0.346,1.18,0.704,1.529,0.961
				c0.173,0.122,0.301,0.221,0.375,0.277c0.024,0.027,0.047,0.04,0.058,0.049c0.004,0.004,0.004,0.004,0.004,0.004v0.003
				l0.002-0.003l0.337,0.272c1.229,0.884,2.776,1.986,4.812,2.871c2.027,0.886,4.519,1.477,7.289,1.463
				c4.674,0.02,8.409-2.027,10.858-4.087c2.449-2.035,4.065-4.277,4.653-4.92c0.302-0.335,0.529-0.705,0.728-1.088L184.747,97.115
				H104.312z"/>
		</defs>
		<clipPath id="SVGID_2_">
			<use xlink:href="#SVGID_1_"  overflow="visible"/>
		</clipPath>
		<path clip-path="url(#SVGID_2_)" fill="#181C1B" d="M193.625,169.106l-0.004-0.003l-48.245-55.773
			c-0.974-1.125-2.395-1.775-3.886-1.779c-1.487-0.003-2.908,0.644-3.886,1.768l-16.668,19.169v-9.423h-12.04v23.268l-20.019,23.024
			c-1.865,2.146-1.638,5.396,0.507,7.26c0.974,0.845,2.175,1.263,3.37,1.263c1.439,0,2.871-0.599,3.889-1.769l4.417-5.082v36.826
			c0,1.316,0.53,2.602,1.46,3.53c0.929,0.93,2.218,1.46,3.527,1.46h70.395c1.313,0,2.598-0.53,3.528-1.46
			c0.929-0.929,1.464-2.214,1.464-3.53v-37.113l4.405,5.093c1.861,2.149,5.106,2.388,7.259,0.529
			C195.247,174.501,195.483,171.255,193.625,169.106 M173.703,188.315h-15.393v-16.934h15.393V188.315z"/>
	</g>
	<g>
		<defs>
			<polygon id="SVGID_3_" points="37.435,235.255 246.826,235.255 142.307,41.694 			"/>
		</defs>
		<clipPath id="SVGID_4_">
			<use xlink:href="#SVGID_3_"  overflow="visible"/>
		</clipPath>
		<path clip-path="url(#SVGID_4_)" fill="#00A4CD" d="M34.735,214.362c0,0-7.536,31.495-8.997,32.617l241.544-5.623l-16.04-26.994
			H34.735z"/>
		<path clip-path="url(#SVGID_4_)" fill="#FFFFFF" d="M237.267,211.333c-0.908,1.021-2.088,2.104-3.693,3.438
			c-1.59,1.311-3.533,2.769-5.713,4.172c-4.402,2.752-9.506,5.521-15.491,5.632c-0.089,0-0.179,0-0.269,0
			c-6.604,0-11.301-3.021-14.238-5.203l-0.361-0.288c-0.018-0.012-0.049-0.042-0.103-0.083c-0.104-0.083-0.282-0.222-0.522-0.391
			c-0.475-0.344-1.199-0.824-2.064-1.295c-1.739-0.959-4.029-1.777-5.965-1.753c-2.861,0.051-4.155,0.69-6.178,1.952
			c-1.974,1.236-4.372,3.438-8.166,5.167c-2.52,1.138-5.626,1.904-9.184,1.894c-5.287,0.052-9.506-1.822-12.389-3.742
			c-2.932-1.938-4.81-3.565-6.646-4.36c-1.235-0.55-2.476-0.897-4.479-0.91c-2.865,0.051-4.161,0.69-6.182,1.952
			c-1.971,1.236-4.368,3.438-8.158,5.167c-2.518,1.138-5.626,1.904-9.18,1.894c-5.159,0.036-9.329-1.771-12.293-3.646
			c-2.993-1.897-5.062-3.641-6.737-4.433c-1.128-0.544-1.994-0.797-3.271-0.81c-2.528-0.074-6.26,1.548-10.359,3.791
			c-4.155,2.104-8.47,4.949-14.388,5.097c-2.308-0.025-4.179-0.649-5.992-1.41c-1.807-0.773-3.538-1.758-5.226-2.838
			c-3.357-2.157-6.53-4.71-8.93-6.816c-1.608-1.428-2.797-2.562-3.653-3.516c-2.037-2.294-1.829-5.806,0.464-7.845
			c2.295-2.036,5.803-1.828,7.844,0.468c0.371,0.439,2.281,2.279,4.521,4.111c2.26,1.868,5.02,3.901,7.362,5.219
			c1.538,0.895,2.944,1.42,3.451,1.494c0.131,0.024,0.157,0.021,0.157,0.021c1.345,0.147,4.975-1.455,9.163-3.79
			c4.246-2.201,9.253-5.023,15.585-5.094c3.152-0.016,5.972,0.842,8.206,1.963c2.248,1.122,3.981,2.427,5.51,3.497
			c3.14,2.175,4.953,3.37,8.586,3.424c3.098-0.054,4.532-0.74,6.553-1.977c1.987-1.221,4.301-3.37,7.997-5.118
			c2.45-1.146,5.503-1.933,8.97-1.917c5.286-0.052,9.508,1.819,12.394,3.738c2.932,1.938,4.806,3.565,6.645,4.36
			c1.237,0.551,2.473,0.901,4.476,0.913c3.105-0.051,4.54-0.74,6.565-1.977c1.987-1.224,4.299-3.37,7.994-5.118
			c2.45-1.142,5.501-1.933,8.968-1.917c4.685,0.021,8.523,1.63,11.259,3.097c2.245,1.218,3.776,2.406,4.373,2.889
			c2.864,1.988,4.243,2.944,7.891,3.026c1.375,0.049,4.108-0.794,6.799-2.277c2.705-1.446,5.421-3.406,7.338-4.992
			c1.266-1.027,2.246-1.99,2.436-2.213v0.002c2.027-2.301,5.54-2.521,7.84-0.489C239.077,205.525,239.299,209.032,237.267,211.333"
			/>
	</g>
	<g>
		<path fill="#EF8300" d="M276.024,236.001L156.402,15.271c-3.467-6.558-8.48-10.041-14.262-10.041
			c-5.05,0-10.428,3.482-13.916,10.041L8.614,236.001C1.25,249.497,7.456,260.32,22.892,260.32h238.88
			C277.183,260.32,283.361,249.497,276.024,236.001 M255.967,244.495H28.294c-4.632,0-5.402-1.938-3.864-4.626L139.426,27.62
			c0.4-0.765,1.555-1.926,2.714-1.926c1.544,0,2.688,1.161,3.066,1.926l114.608,212.249
			C261.375,242.556,260.601,244.495,255.967,244.495"/>
	</g>
</g>
</svg>
