<?xml version="1.0" encoding="utf-8"?>
<!-- Generator: Adobe Illustrator 16.0.4, SVG Export Plug-In . SVG Version: 6.00 Build 0)  -->
<!DOCTYPE svg PUBLIC "-//W3C//DTD SVG 1.1//EN" "http://www.w3.org/Graphics/SVG/1.1/DTD/svg11.dtd">
<svg version="1.1" id="Layer_1" xmlns="http://www.w3.org/2000/svg" xmlns:xlink="http://www.w3.org/1999/xlink" x="0px" y="0px"
	 width="284.768px" height="266.287px" viewBox="0 0 284.768 266.287" enable-background="new 0 0 284.768 266.287"
	 xml:space="preserve">
<g>
	<g>
		<path fill="#FFFFFF" d="M273.872,234.841L155.201,15.869c-3.439-6.508-8.411-9.961-14.147-9.961
			c-5.009,0-10.351,3.453-13.808,9.961L8.591,234.841c-7.309,13.391-1.151,24.124,14.165,24.124h236.979
			C275.02,258.965,281.149,248.232,273.872,234.841"/>
	</g>
	<g>
		<path fill="none" stroke="#FFFFFF" stroke-width="5.721" d="M273.872,234.841L155.201,15.869
			c-3.439-6.508-8.411-9.961-14.147-9.961c-5.009,0-10.351,3.453-13.808,9.961L8.591,234.841
			c-7.309,13.391-1.151,24.124,14.165,24.124h236.979C275.02,258.965,281.149,248.232,273.872,234.841z"/>
	</g>
	<g>
		<defs>
			<path id="SVGID_1_" d="M103.781,79.585l-32.039,97.399c0.19,0.858,0.588,1.679,1.211,2.384c1.022,1.15,2.899,3.149,5.4,5.03
				c2.518,1.823,5.642,3.809,9.989,3.896c5.079-0.145,8.529-2.503,11.79-4.144c3.207-1.774,6.026-2.945,7.656-2.87
				c0.832,0.014,1.329,0.157,2.112,0.532c1.164,0.538,2.775,1.894,5.209,3.449c2.419,1.538,5.933,3.066,10.207,3.032
				c2.935,0.013,5.537-0.632,7.637-1.583c3.154-1.452,5.085-3.243,6.553-4.155c1.52-0.936,2.269-1.323,4.299-1.375
				c1.433,0.01,2.236,0.247,3.091,0.624c1.268,0.542,2.7,1.779,5.094,3.371c2.307,1.551,5.814,3.121,10.088,3.121
				c0.072,0,0.138-0.003,0.21-0.003c2.931,0.013,5.537-0.629,7.637-1.58c3.157-1.455,5.091-3.246,6.559-4.158
				c1.518-0.938,2.266-1.323,4.293-1.375c1.264-0.022,2.922,0.547,4.198,1.26c0.635,0.342,1.171,0.7,1.512,0.951
				c0.175,0.125,0.304,0.223,0.372,0.281c0.028,0.023,0.05,0.039,0.059,0.049l0.004,0.003l0.338,0.266
				c1.221,0.878,2.76,1.971,4.774,2.852c2.013,0.881,4.481,1.462,7.231,1.452c4.637,0.02,8.345-2.017,10.771-4.054
				c2.433-2.021,4.033-4.245,4.616-4.882c0.297-0.333,0.525-0.699,0.723-1.08l-32.309-98.694H103.781z"/>
		</defs>
		<clipPath id="SVGID_2_">
			<use xlink:href="#SVGID_1_"  overflow="visible"/>
		</clipPath>
		<path clip-path="url(#SVGID_2_)" fill="#181C1B" d="M192.127,152.61l-0.003-0.004l-47.859-55.329
			c-0.967-1.119-2.378-1.762-3.854-1.765c-1.474-0.005-2.892,0.636-3.855,1.755l-16.539,19.015v-9.349h-11.939v23.084l-19.861,22.84
			c-1.851,2.128-1.624,5.351,0.503,7.2c0.967,0.842,2.159,1.251,3.346,1.251c1.423,0,2.844-0.593,3.857-1.755l4.38-5.035v36.53
			c0,1.303,0.526,2.578,1.445,3.501c0.924,0.924,2.2,1.449,3.504,1.449h69.834c1.302,0,2.574-0.525,3.498-1.449
			c0.923-0.923,1.452-2.198,1.452-3.501v-36.82l4.374,5.056c1.84,2.132,5.064,2.364,7.195,0.522
			C193.735,157.963,193.974,154.741,192.127,152.61 M172.366,171.663h-15.27v-16.798h15.27V171.663z"/>
	</g>
	<g>
		<defs>
			<polygon id="SVGID_3_" points="37.183,234.102 244.908,234.102 141.217,42.083 			"/>
		</defs>
		<clipPath id="SVGID_4_">
			<use xlink:href="#SVGID_3_"  overflow="visible"/>
		</clipPath>
		<path clip-path="url(#SVGID_4_)" fill="#00A4CD" d="M226.188,189.086c-0.135-0.122-0.291-0.207-0.432-0.314
			c-0.104,0.142-0.188,0.296-0.311,0.434c-0.673,0.731-2.513,3.284-5.307,5.604c-2.784,2.339-7.036,4.671-12.358,4.651
			c-3.157,0.013-5.995-0.653-8.302-1.67c-2.315-1.009-4.076-2.262-5.48-3.271l-0.382-0.305c-0.004-0.002-0.004-0.002-0.007-0.006
			c-0.016-0.01-0.037-0.026-0.068-0.052c-0.081-0.066-0.229-0.18-0.426-0.324c-0.396-0.287-1.011-0.693-1.739-1.092
			c-1.465-0.818-3.367-1.474-4.816-1.444c-2.327,0.057-3.188,0.5-4.927,1.576c-1.688,1.05-3.908,3.107-7.532,4.771
			c-2.405,1.096-5.4,1.833-8.764,1.816c-0.081,0.003-0.159,0.003-0.241,0.003c-4.908,0-8.93-1.798-11.583-3.581
			c-2.74-1.831-4.386-3.246-5.844-3.867c-0.979-0.434-1.902-0.706-3.548-0.718c-2.332,0.057-3.195,0.504-4.935,1.576
			c-1.684,1.047-3.898,3.104-7.522,4.771c-2.402,1.093-5.397,1.833-8.761,1.816c-4.912,0.041-8.948-1.713-11.717-3.479
			c-2.798-1.784-4.649-3.343-5.983-3.96c-0.897-0.433-1.47-0.597-2.424-0.611c-1.872-0.084-5.106,1.259-8.789,3.296
			c-3.742,1.88-7.703,4.589-13.532,4.755c-4.987-0.096-8.576-2.38-11.468-4.474c-2.865-2.158-5.021-4.452-6.195-5.772
			c-1.106-1.25-1.602-2.819-1.535-4.364c-6.134-1.784-13.505-3.832-13.505-3.832s-20.729,63.6-22.177,64.714l239.62-5.578
			l-21.213-45.746L226.188,189.086z M235.424,210.371c-0.903,1.013-2.074,2.089-3.666,3.409c-1.574,1.301-3.504,2.749-5.667,4.14
			c-4.367,2.73-9.43,5.479-15.365,5.588c-0.091,0-0.182,0-0.269,0c-6.55,0-11.208-2.999-14.125-5.162l-0.359-0.288v0.003
			c-0.016-0.013-0.051-0.042-0.101-0.083c-0.103-0.084-0.281-0.219-0.516-0.388c-0.476-0.34-1.192-0.816-2.053-1.284
			c-1.724-0.953-3.996-1.767-5.916-1.74c-2.835,0.054-4.122,0.683-6.127,1.936c-1.961,1.229-4.34,3.411-8.104,5.129
			c-2.497,1.127-5.579,1.887-9.108,1.878c-5.243,0.051-9.43-1.807-12.293-3.714c-2.906-1.923-4.771-3.534-6.589-4.325
			c-1.23-0.545-2.46-0.891-4.446-0.903c-2.841,0.054-4.124,0.683-6.133,1.936c-1.955,1.227-4.334,3.411-8.091,5.125
			c-2.501,1.131-5.582,1.891-9.108,1.882c-5.118,0.034-9.255-1.757-12.196-3.618c-2.97-1.881-5.022-3.61-6.683-4.395
			c-1.12-0.54-1.978-0.791-3.245-0.806c-2.51-0.07-6.214,1.54-10.278,3.763c-4.12,2.088-8.404,4.907-14.273,5.056
			c-2.287-0.026-4.144-0.647-5.945-1.399c-1.789-0.767-3.507-1.744-5.182-2.815c-3.329-2.14-6.477-4.674-8.857-6.762
			c-1.599-1.416-2.778-2.541-3.626-3.489c-2.021-2.274-1.812-5.757,0.463-7.78c2.277-2.021,5.757-1.813,7.777,0.462
			c0.373,0.437,2.266,2.262,4.487,4.081c2.244,1.854,4.981,3.867,7.307,5.178c1.526,0.885,2.918,1.407,3.422,1.48
			c0.132,0.021,0.154,0.021,0.154,0.021c1.336,0.146,4.937-1.439,9.092-3.76c4.212-2.187,9.177-4.982,15.46-5.057
			c3.126-0.013,5.923,0.841,8.142,1.952c2.23,1.11,3.948,2.406,5.466,3.468c3.112,2.158,4.912,3.345,8.517,3.396
			c3.075-0.052,4.493-0.733,6.502-1.959c1.968-1.212,4.264-3.345,7.932-5.079c2.431-1.137,5.463-1.919,8.898-1.901
			c5.246-0.052,9.433,1.807,12.296,3.706c2.907,1.926,4.768,3.54,6.593,4.328c1.224,0.545,2.453,0.894,4.439,0.905
			c3.079-0.049,4.503-0.733,6.511-1.962c1.972-1.212,4.269-3.342,7.932-5.076c2.435-1.134,5.458-1.919,8.896-1.901
			c4.646,0.021,8.454,1.617,11.173,3.072c2.225,1.211,3.745,2.386,4.333,2.865c2.842,1.972,4.212,2.92,7.832,3.002
			c1.363,0.049,4.073-0.786,6.742-2.257c2.682-1.437,5.382-3.38,7.281-4.955c1.252-1.021,2.228-1.972,2.412-2.197l0.003,0.004
			c2.013-2.281,5.491-2.499,7.776-0.487C237.221,204.606,237.439,208.087,235.424,210.371"/>
	</g>
	<g>
		<path fill="#E4271B" d="M273.872,234.841L155.201,15.869c-3.443-6.508-8.415-9.961-14.15-9.961
			c-5.006,0-10.344,3.453-13.802,9.961L8.588,234.841c-7.306,13.391-1.148,24.124,14.168,24.124h236.976
			C275.023,258.965,281.152,248.232,273.872,234.841 M253.976,243.269H28.113c-4.594,0-5.356-1.922-3.833-4.591L138.361,28.12
			c0.397-0.762,1.545-1.912,2.69-1.912c1.533,0,2.669,1.15,3.045,1.912l113.697,210.558
			C259.339,241.347,258.572,243.269,253.976,243.269"/>
	</g>
</g>
</svg>
