<?xml version="1.0" encoding="utf-8"?>
<!-- Generator: Adobe Illustrator 16.0.4, SVG Export Plug-In . SVG Version: 6.00 Build 0)  -->
<!DOCTYPE svg PUBLIC "-//W3C//DTD SVG 1.1//EN" "http://www.w3.org/Graphics/SVG/1.1/DTD/svg11.dtd">
<svg version="1.1" id="Layer_1" xmlns="http://www.w3.org/2000/svg" xmlns:xlink="http://www.w3.org/1999/xlink" x="0px" y="0px"
	 width="284.768px" height="266.287px" viewBox="0 0 284.768 266.287" enable-background="new 0 0 284.768 266.287"
	 xml:space="preserve">
<g>
	<g>
		<path fill="#FFFFFF" d="M267.645,236.821L153.053,16.836c-3.322-6.537-8.121-10.006-13.66-10.006
			c-4.837,0-9.993,3.469-13.328,10.006L11.486,236.821c-7.06,13.449-1.111,24.234,13.68,24.234h228.828
			C268.755,261.055,274.672,250.27,267.645,236.821"/>
	</g>
	<g>
		<path fill="none" stroke="#FFFFFF" stroke-width="5.6347" d="M267.645,236.821L153.053,16.836
			c-3.322-6.537-8.121-10.006-13.66-10.006c-4.837,0-9.993,3.469-13.328,10.006L11.486,236.821
			c-7.06,13.449-1.111,24.234,13.68,24.234h228.828C268.755,261.055,274.672,250.27,267.645,236.821z"/>
	</g>
	<g>
		<defs>
			<path id="SVGID_1_" d="M104.5,93.779l-32.04,66.108c0.188,0.858,0.576,1.688,1.174,2.394c0.992,1.155,2.8,3.164,5.213,5.055
				c2.431,1.831,5.45,3.83,9.646,3.915c4.906-0.146,8.235-2.518,11.39-4.161c3.094-1.785,5.819-2.962,7.391-2.888
				c0.804,0.015,1.282,0.158,2.039,0.535c1.124,0.541,2.686,1.903,5.031,3.467c2.328,1.546,5.729,3.082,9.856,3.047
				c2.831,0.014,5.351-0.635,7.375-1.592c3.044-1.458,4.908-3.26,6.323-4.174c1.464-0.938,2.189-1.33,4.154-1.381
				c1.38,0.012,2.159,0.246,2.985,0.626c1.221,0.545,2.609,1.786,4.915,3.388c2.231,1.56,5.617,3.133,9.743,3.133
				c0.066,0,0.136,0,0.204,0c2.828,0.014,5.351-0.635,7.371-1.592c3.048-1.455,4.919-3.256,6.337-4.174
				c1.461-0.942,2.187-1.33,4.142-1.381c1.224-0.023,2.822,0.553,4.053,1.266c0.612,0.345,1.132,0.706,1.464,0.956
				c0.169,0.126,0.294,0.223,0.359,0.279c0.028,0.023,0.047,0.042,0.06,0.049v0.003l0,0l0.325,0.269
				c1.177,0.884,2.663,1.98,4.612,2.864c1.94,0.884,4.324,1.471,6.978,1.461c4.48,0.017,8.06-2.027,10.4-4.074
				c2.35-2.028,3.896-4.266,4.464-4.902c0.285-0.338,0.505-0.705,0.698-1.087L178.86,93.779H104.5z"/>
		</defs>
		<clipPath id="SVGID_2_">
			<use xlink:href="#SVGID_1_"  overflow="visible"/>
		</clipPath>
		<path clip-path="url(#SVGID_2_)" fill="#E4271B" d="M188.713,154.207l-0.004-0.002l-46.214-55.585
			c-0.937-1.122-2.294-1.771-3.722-1.772c-1.426-0.003-2.79,0.641-3.723,1.763l-15.97,19.105v-9.393h-11.533v23.189l-19.177,22.947
			c-1.786,2.137-1.567,5.375,0.485,7.233c0.933,0.844,2.084,1.259,3.229,1.259c1.38,0,2.749-0.598,3.723-1.765l4.233-5.062v36.702
			c0,1.309,0.51,2.59,1.399,3.516c0.891,0.927,2.121,1.457,3.378,1.457h67.432c1.259,0,2.491-0.53,3.38-1.457
			c0.89-0.926,1.401-2.207,1.401-3.516v-36.991l4.225,5.078c1.777,2.142,4.891,2.378,6.952,0.525
			C190.265,159.585,190.493,156.348,188.713,154.207 M169.63,173.35h-14.749v-16.877h14.749V173.35z"/>
	</g>
	<g>
		<defs>
			<polygon id="SVGID_3_" points="39.095,236.077 239.679,236.077 139.553,43.17 			"/>
		</defs>
		<clipPath id="SVGID_4_">
			<use xlink:href="#SVGID_3_"  overflow="visible"/>
		</clipPath>
		<path clip-path="url(#SVGID_4_)" fill="#00A4CD" d="M221.601,190.853c-0.132-0.124-0.278-0.209-0.413-0.315
			c-0.106,0.145-0.188,0.299-0.301,0.435c-0.654,0.736-2.428,3.299-5.125,5.629c-2.69,2.353-6.796,4.693-11.937,4.677
			c-3.047,0.01-5.785-0.659-8.016-1.678c-2.235-1.014-3.937-2.275-5.292-3.287l-0.368-0.307h-0.004l0,0
			c-0.003-0.001-0.003-0.003-0.006-0.006c-0.009-0.008-0.034-0.026-0.066-0.054c-0.075-0.066-0.216-0.179-0.409-0.322
			c-0.385-0.289-0.974-0.7-1.68-1.099c-1.415-0.819-3.248-1.479-4.65-1.453c-2.247,0.06-3.079,0.504-4.759,1.587
			c-1.627,1.055-3.771,3.119-7.269,4.792c-2.324,1.1-5.218,1.839-8.466,1.826c-0.078,0.001-0.153,0.001-0.232,0.001
			c-4.736,0-8.623-1.808-11.181-3.597c-2.647-1.839-4.237-3.262-5.645-3.888c-0.945-0.436-1.84-0.707-3.427-0.722
			c-2.249,0.06-3.082,0.506-4.765,1.587c-1.627,1.051-3.768,3.116-7.266,4.79c-2.322,1.1-5.213,1.841-8.46,1.828
			c-4.74,0.04-8.636-1.723-11.312-3.497c-2.7-1.793-4.489-3.357-5.775-3.98c-0.87-0.433-1.421-0.597-2.344-0.612
			c-1.809-0.084-4.931,1.266-8.485,3.312c-3.613,1.889-7.44,4.61-13.065,4.778c-4.819-0.1-8.285-2.395-11.074-4.494
			c-2.771-2.169-4.852-4.475-5.985-5.801c-1.066-1.255-1.545-2.832-1.482-4.385c-5.92-1.791-13.035-3.85-13.035-3.85
			s-20.021,63.894-21.417,65.013l231.381-5.604L238.783,196.2L221.601,190.853z M230.518,212.236
			c-0.87,1.019-2.003,2.098-3.539,3.425c-1.523,1.307-3.386,2.761-5.472,4.159c-4.218,2.741-9.105,5.503-14.838,5.611
			c-0.087,0.002-0.175,0.002-0.263,0.002c-6.32,0-10.819-3.013-13.636-5.188l-0.344-0.286h-0.003
			c-0.017-0.013-0.047-0.041-0.097-0.081c-0.101-0.085-0.27-0.221-0.501-0.392c-0.457-0.342-1.148-0.82-1.978-1.291
			c-1.665-0.956-3.861-1.771-5.713-1.747c-2.741,0.053-3.98,0.688-5.92,1.944c-1.89,1.236-4.187,3.429-7.822,5.153
			c-2.413,1.135-5.388,1.898-8.795,1.885c-5.064,0.054-9.108-1.814-11.868-3.728c-2.81-1.934-4.608-3.553-6.367-4.348
			c-1.186-0.548-2.371-0.895-4.29-0.907c-2.743,0.053-3.985,0.688-5.926,1.944c-1.884,1.234-4.181,3.427-7.812,5.15
			c-2.413,1.138-5.392,1.901-8.796,1.888c-4.94,0.037-8.936-1.763-11.776-3.632c-2.866-1.89-4.847-3.628-6.452-4.417
			c-1.082-0.542-1.908-0.794-3.135-0.807c-2.422-0.074-5.995,1.543-9.925,3.778c-3.977,2.096-8.11,4.931-13.779,5.077
			c-2.209-0.024-4.002-0.647-5.738-1.404c-1.733-0.771-3.392-1.751-5.006-2.827c-3.218-2.148-6.255-4.696-8.555-6.794
			c-1.542-1.422-2.682-2.553-3.501-3.506c-1.953-2.285-1.752-5.785,0.447-7.814c2.196-2.03,5.557-1.824,7.509,0.465
			c0.36,0.437,2.188,2.271,4.337,4.098c2.165,1.862,4.807,3.887,7.052,5.203c1.472,0.889,2.819,1.412,3.305,1.484
			c0.125,0.026,0.15,0.023,0.15,0.023c1.289,0.146,4.765-1.448,8.779-3.778c4.062-2.193,8.861-5.006,14.925-5.078
			c3.022-0.015,5.726,0.842,7.863,1.961c2.152,1.116,3.813,2.417,5.278,3.481c3.01,2.17,4.743,3.359,8.222,3.414
			c2.973-0.054,4.344-0.736,6.279-1.97c1.9-1.218,4.122-3.36,7.66-5.102c2.35-1.142,5.272-1.926,8.595-1.912
			c5.062-0.052,9.105,1.814,11.871,3.727c2.807,1.934,4.605,3.556,6.365,4.348c1.182,0.548,2.371,0.896,4.289,0.909
			c2.975-0.05,4.346-0.736,6.285-1.971c1.903-1.218,4.121-3.359,7.66-5.101c2.35-1.139,5.269-1.926,8.592-1.912
			c4.486,0.023,8.163,1.626,10.784,3.087c2.15,1.218,3.621,2.397,4.19,2.88c2.74,1.982,4.062,2.934,7.559,3.017
			c1.314,0.05,3.937-0.79,6.511-2.269c2.592-1.442,5.194-3.395,7.031-4.976c1.207-1.025,2.149-1.985,2.328-2.206l0.003,0.001
			c1.942-2.292,5.303-2.511,7.513-0.488C232.254,206.446,232.464,209.943,230.518,212.236"/>
		<path clip-path="url(#SVGID_4_)" fill="#00A4CD" d="M211.907,182.248c-0.157,0.194-0.976,1.028-2.03,1.924
			c-1.6,1.376-3.867,3.074-6.124,4.331c-2.247,1.289-4.523,2.02-5.672,1.976c-3.049-0.07-4.196-0.901-6.593-2.625
			c-0.494-0.421-1.771-1.448-3.643-2.51c-2.287-1.273-5.491-2.667-9.398-2.688c-2.892-0.014-5.438,0.672-7.485,1.666
			c-3.081,1.515-5.012,3.38-6.67,4.442c-1.688,1.073-2.884,1.673-5.479,1.715c-1.67-0.01-2.705-0.313-3.732-0.79
			c-1.536-0.691-3.104-2.104-5.55-3.787c-2.406-1.665-5.93-3.291-10.341-3.246c-2.895-0.014-5.441,0.671-7.487,1.666
			c-3.085,1.515-5.016,3.382-6.671,4.444c-1.689,1.071-2.885,1.669-5.469,1.713c-3.035-0.046-4.547-1.083-7.166-2.972
			c-1.276-0.929-2.722-2.06-4.599-3.033c-1.865-0.975-4.218-1.72-6.85-1.708c-5.284,0.063-9.464,2.511-13.007,4.423
			c-3.491,2.03-6.523,3.419-7.646,3.29c0,0-0.019,0.003-0.128-0.019c-0.423-0.062-1.599-0.521-2.882-1.294
			c-1.956-1.146-4.256-2.91-6.145-4.529c-1.872-1.595-3.461-3.191-3.773-3.573c-0.433-0.506-0.946-0.892-1.502-1.162l6.598-12.181
			c0.186,0.86,0.569,1.689,1.174,2.396c0.986,1.155,2.797,3.162,5.213,5.054c2.428,1.829,5.447,3.829,9.643,3.914
			c4.906-0.146,8.235-2.515,11.386-4.163c3.101-1.781,5.819-2.956,7.395-2.885c0.801,0.016,1.282,0.157,2.039,0.534
			c1.12,0.543,2.679,1.905,5.031,3.469c2.332,1.545,5.727,3.08,9.856,3.045c2.831,0.012,5.351-0.633,7.371-1.59
			c3.048-1.458,4.912-3.26,6.33-4.176c1.461-0.94,2.187-1.329,4.151-1.38c1.384,0.011,2.159,0.249,2.985,0.629
			c1.224,0.542,2.606,1.783,4.915,3.385c2.231,1.559,5.613,3.134,9.74,3.134c0.069,0,0.139,0,0.207-0.002
			c2.828,0.012,5.348-0.631,7.371-1.589c3.048-1.458,4.919-3.257,6.333-4.177c1.465-0.942,2.19-1.329,4.148-1.38
			c1.221-0.025,2.819,0.55,4.05,1.265c0.612,0.345,1.132,0.705,1.464,0.956c0.169,0.126,0.291,0.225,0.356,0.281
			c0.028,0.024,0.05,0.04,0.057,0.049c0.006,0.001,0.006,0.002,0.006,0.003l0,0l0.325,0.267c1.181,0.884,2.66,1.982,4.609,2.864
			c1.943,0.887,4.327,1.471,6.983,1.461c4.478,0.016,8.057-2.023,10.397-4.073c2.354-2.028,3.898-4.264,4.461-4.904
			c0.288-0.335,0.508-0.702,0.698-1.083l2.938,11.793c-0.816,0.247-1.583,0.719-2.189,1.434V182.248z"/>
	</g>
	<g>
		<path fill="#E4271B" d="M267.645,236.821L153.053,16.836c-3.322-6.537-8.121-10.006-13.66-10.006
			c-4.837,0-9.993,3.469-13.328,10.006L11.486,236.821c-7.06,13.449-1.111,24.234,13.68,24.234h228.828
			C268.755,261.055,274.672,250.27,267.645,236.821 M248.433,245.287H30.333c-4.437,0-5.168-1.931-3.698-4.612L136.796,29.143
			c0.382-0.764,1.486-1.919,2.597-1.919c1.478,0,2.578,1.156,2.936,1.919l109.791,211.531
			C253.611,243.356,252.869,245.287,248.433,245.287"/>
	</g>
</g>
</svg>
