<?xml version="1.0" encoding="UTF-8" standalone="no"?>
<svg
   xmlns:dc="http://purl.org/dc/elements/1.1/"
   xmlns:cc="http://creativecommons.org/ns#"
   xmlns:rdf="http://www.w3.org/1999/02/22-rdf-syntax-ns#"
   xmlns:svg="http://www.w3.org/2000/svg"
   xmlns="http://www.w3.org/2000/svg"
   xmlns:xlink="http://www.w3.org/1999/xlink"
   xmlns:sodipodi="http://sodipodi.sourceforge.net/DTD/sodipodi-0.dtd"
   xmlns:inkscape="http://www.inkscape.org/namespaces/inkscape"
   inkscape:version="1.0 (4035a4fb49, 2020-05-01)"
   sodipodi:docname="flood-warnings-icon - Copy.svg"
   xml:space="preserve"
   enable-background="new 0 0 284.768 266.287"
   viewBox="0 0 284.768 266.287"
   height="266.287px"
   width="284.768px"
   y="0px"
   x="0px"
   id="Layer_1"
   version="1.1"><metadata
   id="metadata41"><rdf:RDF><cc:Work
       rdf:about=""><dc:format>image/svg+xml</dc:format><dc:type
         rdf:resource="http://purl.org/dc/dcmitype/StillImage" /></cc:Work></rdf:RDF></metadata><defs
   id="defs39">
	
	
	
	
	
</defs><sodipodi:namedview
   inkscape:current-layer="Layer_1"
   inkscape:window-maximized="0"
   inkscape:window-y="0"
   inkscape:window-x="-7"
   inkscape:cy="133.14349"
   inkscape:cx="142.384"
   inkscape:zoom="3.6837003"
   showgrid="false"
   id="namedview37"
   inkscape:window-height="1368"
   inkscape:window-width="1718"
   inkscape:pageshadow="2"
   inkscape:pageopacity="0"
   guidetolerance="10"
   gridtolerance="10"
   objecttolerance="10"
   borderopacity="1"
   bordercolor="#666666"
   pagecolor="#ffffff" />
<g
   id="g4">
		<path
   fill="#ffffff"
   d="M 273.872,234.841 155.201,15.869 c -3.439,-6.508 -8.411,-9.961 -14.147,-9.961 -5.009,0 -10.351,3.453 -13.808,9.961 L 8.591,234.841 c -7.309,13.391 -1.151,24.124 14.165,24.124 h 236.979 c 15.285,0 21.414,-10.733 14.137,-24.124"
   id="path2" />
	</g><g
   id="g8">
		<path
   fill="none"
   stroke="#ffffff"
   stroke-width="5.721"
   d="M 273.872,234.841 155.201,15.869 c -3.439,-6.508 -8.411,-9.961 -14.147,-9.961 -5.009,0 -10.351,3.453 -13.808,9.961 L 8.591,234.841 c -7.309,13.391 -1.151,24.124 14.165,24.124 h 236.979 c 15.285,0 21.414,-10.733 14.137,-24.124 z"
   id="path6" />
	</g><g
   id="g28">
		<defs
   id="defs21">
			<polygon
   id="SVGID_3_"
   points="141.217,42.083 37.183,234.102 244.908,234.102 " />
		</defs>
		<clipPath
   id="SVGID_4_">
			<use
   xlink:href="#SVGID_3_"
   overflow="visible"
   id="use23"
   x="0"
   y="0"
   width="100%"
   height="100%" />
		</clipPath>
		<path
   clip-path="url(#SVGID_4_)"
   fill="#00a4cd"
   d="m 226.188,189.086 c -0.135,-0.122 -0.291,-0.207 -0.432,-0.314 -0.104,0.142 -0.188,0.296 -0.311,0.434 -0.673,0.731 -2.513,3.284 -5.307,5.604 -2.784,2.339 -7.036,4.671 -12.358,4.651 -3.157,0.013 -5.995,-0.653 -8.302,-1.67 -2.315,-1.009 -4.076,-2.262 -5.48,-3.271 l -0.382,-0.305 c -0.004,-0.002 -0.004,-0.002 -0.007,-0.006 -0.016,-0.01 -0.037,-0.026 -0.068,-0.052 -0.081,-0.066 -0.229,-0.18 -0.426,-0.324 -0.396,-0.287 -1.011,-0.693 -1.739,-1.092 -1.465,-0.818 -3.367,-1.474 -4.816,-1.444 -2.327,0.057 -3.188,0.5 -4.927,1.576 -1.688,1.05 -3.908,3.107 -7.532,4.771 -2.405,1.096 -5.4,1.833 -8.764,1.816 -0.081,0.003 -0.159,0.003 -0.241,0.003 -4.908,0 -8.93,-1.798 -11.583,-3.581 -2.74,-1.831 -4.386,-3.246 -5.844,-3.867 -0.979,-0.434 -1.902,-0.706 -3.548,-0.718 -2.332,0.057 -3.195,0.504 -4.935,1.576 -1.684,1.047 -3.898,3.104 -7.522,4.771 -2.402,1.093 -5.397,1.833 -8.761,1.816 -4.912,0.041 -8.948,-1.713 -11.717,-3.479 -2.798,-1.784 -4.649,-3.343 -5.983,-3.96 -0.897,-0.433 -1.47,-0.597 -2.424,-0.611 -1.872,-0.084 -5.106,1.259 -8.789,3.296 -3.742,1.88 -7.703,4.589 -13.532,4.755 -4.987,-0.096 -8.576,-2.38 -11.468,-4.474 -2.865,-2.158 -5.021,-4.452 -6.195,-5.772 -1.106,-1.25 -1.602,-2.819 -1.535,-4.364 -6.134,-1.784 -13.505,-3.832 -13.505,-3.832 0,0 -20.729,63.6 -22.177,64.714 l 239.62,-5.578 -21.213,-45.746 z m 9.236,21.285 c -0.903,1.013 -2.074,2.089 -3.666,3.409 -1.574,1.301 -3.504,2.749 -5.667,4.14 -4.367,2.73 -9.43,5.479 -15.365,5.588 -0.091,0 -0.182,0 -0.269,0 -6.55,0 -11.208,-2.999 -14.125,-5.162 l -0.359,-0.288 v 0.003 c -0.016,-0.013 -0.051,-0.042 -0.101,-0.083 -0.103,-0.084 -0.281,-0.219 -0.516,-0.388 -0.476,-0.34 -1.192,-0.816 -2.053,-1.284 -1.724,-0.953 -3.996,-1.767 -5.916,-1.74 -2.835,0.054 -4.122,0.683 -6.127,1.936 -1.961,1.229 -4.34,3.411 -8.104,5.129 -2.497,1.127 -5.579,1.887 -9.108,1.878 -5.243,0.051 -9.43,-1.807 -12.293,-3.714 -2.906,-1.923 -4.771,-3.534 -6.589,-4.325 -1.23,-0.545 -2.46,-0.891 -4.446,-0.903 -2.841,0.054 -4.124,0.683 -6.133,1.936 -1.955,1.227 -4.334,3.411 -8.091,5.125 -2.501,1.131 -5.582,1.891 -9.108,1.882 -5.118,0.034 -9.255,-1.757 -12.196,-3.618 -2.97,-1.881 -5.022,-3.61 -6.683,-4.395 -1.12,-0.54 -1.978,-0.791 -3.245,-0.806 -2.51,-0.07 -6.214,1.54 -10.278,3.763 -4.12,2.088 -8.404,4.907 -14.273,5.056 -2.287,-0.026 -4.144,-0.647 -5.945,-1.399 -1.789,-0.767 -3.507,-1.744 -5.182,-2.815 -3.329,-2.14 -6.477,-4.674 -8.857,-6.762 -1.599,-1.416 -2.778,-2.541 -3.626,-3.489 -2.021,-2.274 -1.812,-5.757 0.463,-7.78 2.277,-2.021 5.757,-1.813 7.777,0.462 0.373,0.437 2.266,2.262 4.487,4.081 2.244,1.854 4.981,3.867 7.307,5.178 1.526,0.885 2.918,1.407 3.422,1.48 0.132,0.021 0.154,0.021 0.154,0.021 1.336,0.146 4.937,-1.439 9.092,-3.76 4.212,-2.187 9.177,-4.982 15.46,-5.057 3.126,-0.013 5.923,0.841 8.142,1.952 2.23,1.11 3.948,2.406 5.466,3.468 3.112,2.158 4.912,3.345 8.517,3.396 3.075,-0.052 4.493,-0.733 6.502,-1.959 1.968,-1.212 4.264,-3.345 7.932,-5.079 2.431,-1.137 5.463,-1.919 8.898,-1.901 5.246,-0.052 9.433,1.807 12.296,3.706 2.907,1.926 4.768,3.54 6.593,4.328 1.224,0.545 2.453,0.894 4.439,0.905 3.079,-0.049 4.503,-0.733 6.511,-1.962 1.972,-1.212 4.269,-3.342 7.932,-5.076 2.435,-1.134 5.458,-1.919 8.896,-1.901 4.646,0.021 8.454,1.617 11.173,3.072 2.225,1.211 3.745,2.386 4.333,2.865 2.842,1.972 4.212,2.92 7.832,3.002 1.363,0.049 4.073,-0.786 6.742,-2.257 2.682,-1.437 5.382,-3.38 7.281,-4.955 1.252,-1.021 2.228,-1.972 2.412,-2.197 l 0.003,0.004 c 2.013,-2.281 5.491,-2.499 7.776,-0.487 2.28,2.012 2.498,5.493 0.483,7.777"
   id="path26" />
	</g><g
   id="g32">
		<path
   fill="#e4271b"
   d="M 273.872,234.841 155.201,15.869 c -3.443,-6.508 -8.415,-9.961 -14.15,-9.961 -5.006,0 -10.344,3.453 -13.802,9.961 L 8.588,234.841 c -7.306,13.391 -1.148,24.124 14.168,24.124 h 236.976 c 15.291,0 21.42,-10.733 14.14,-24.124 m -19.896,8.428 H 28.113 c -4.594,0 -5.356,-1.922 -3.833,-4.591 L 138.361,28.12 c 0.397,-0.762 1.545,-1.912 2.69,-1.912 1.533,0 2.669,1.15 3.045,1.912 l 113.697,210.558 c 1.546,2.669 0.779,4.591 -3.817,4.591"
   id="path30" />
	</g>
<path
   id="path886"
   d="M 19.946525,258.6743 C 8.6297375,257.66206 3.2276477,249.67757 6.8294398,239.28676 7.5781552,237.12679 19.989981,214.02382 67.572738,126.22111 100.46401,65.528059 127.81535,15.137152 128.3535,14.241314 c 0.53816,-0.895838 1.90224,-2.555107 3.03131,-3.687263 4.94998,-4.9635387 11.01154,-5.8720193 16.75472,-2.5111274 1.7451,1.0212292 4.30599,3.6310724 5.68411,5.7927624 1.56778,2.459192 120.44766,221.915554 121.2686,223.866024 2.78614,6.61961 2.07509,12.70163 -1.94187,16.60993 -2.72664,2.65288 -6.04682,3.94097 -11.32126,4.39215 -3.68086,0.31486 -238.352586,0.28626 -241.882585,-0.0295 z M 257.14805,242.89682 c 1.36027,-0.6162 1.75569,-1.60079 1.2318,-3.06712 C 257.61737,237.69556 144.11884,27.82265 143.327,27.082643 c -1.941,-1.81394 -3.8263,-1.139348 -5.60092,2.004107 -3.96444,7.022369 -113.958221,210.3532 -114.148646,211.01136 -0.462925,1.60001 0.484077,2.70877 2.678495,3.13602 0.564531,0.10991 52.516765,0.18292 115.449411,0.16223 107.10703,-0.0352 114.48818,-0.0671 115.44271,-0.49954 z"
   style="fill:#777f82;fill-opacity:1;stroke:#777f82;stroke-width:0.271466;stroke-miterlimit:10;stroke-dasharray:none;stroke-opacity:1" /></svg>
